<svg width="592" height="700" viewBox="0 0 592 700" fill="none" xmlns="http://www.w3.org/2000/svg">
<path d="M546.664 413.744C546.658 466.202 531.097 517.481 501.948 561.095C472.799 604.709 431.372 638.701 382.905 658.771C334.438 678.841 281.107 684.088 229.658 673.849C178.209 663.61 130.951 638.345 93.8605 601.248C56.7701 564.151 31.513 516.889 21.2829 465.438C11.0529 413.987 16.3094 360.658 36.3878 312.194C56.4662 263.73 90.4646 222.309 134.084 193.168C177.703 164.026 228.984 148.474 281.443 148.477C316.276 148.477 350.768 155.338 382.949 168.67C415.13 182.001 444.37 201.541 468.999 226.174C493.628 250.807 513.163 280.05 526.489 312.234C539.815 344.417 546.67 378.911 546.664 413.744Z" fill="white"/>
<path d="M300.8 705.925C186.04 713.54 82.1692 653.432 28.3243 559.912L76.266 536.44C98.7754 574.345 131.337 605.279 170.345 625.817C209.353 646.355 253.285 655.695 297.275 652.802C428.547 644.092 528.267 530.214 519.555 398.926C510.844 267.638 397.012 167.931 265.679 176.645L262.154 123.523C422.72 112.869 562.023 234.835 572.678 395.401C583.332 555.967 461.365 695.27 300.8 705.925Z" fill="black"/>
<path d="M304.484 193.009H204.82L399.335 -5.6284L498.999 -5.62842L304.484 193.009Z" fill="black"/>
<path d="M247.86 254.579H215.08L418.336 42.7437H451.116L247.86 254.579Z" fill="white"/>
</svg>
