<svg width="359" height="376" viewBox="0 0 359 376" fill="none" xmlns="http://www.w3.org/2000/svg">
<path d="M331.859 188.073C331.856 219.874 322.422 250.961 304.751 277.401C287.08 303.841 261.966 324.448 232.584 336.615C203.202 348.782 170.871 351.963 139.681 345.756C108.491 339.549 79.8425 324.232 57.3572 301.743C34.872 279.254 19.5604 250.602 13.3587 219.411C7.15696 188.22 10.3436 155.89 22.5157 126.51C34.6877 97.1304 55.2986 72.0195 81.7418 54.3532C108.185 36.6868 139.273 27.2584 171.075 27.2603C192.192 27.2603 213.102 31.42 232.611 39.5019C252.12 47.5838 269.846 59.4296 284.776 74.3628C299.707 89.296 311.55 107.024 319.628 126.535C327.707 146.045 331.863 166.956 331.859 188.073Z" fill="white"/>
<path d="M182.809 365.201C113.239 369.817 50.2698 333.378 17.6275 276.684L46.6911 262.454C60.3369 285.433 80.0769 304.187 103.725 316.637C127.372 329.088 154.005 334.75 180.673 332.996C260.254 327.716 320.707 258.68 315.425 179.09C310.144 99.4993 241.136 39.0537 161.518 44.3368L159.382 12.1326C256.721 5.67363 341.171 79.6133 347.63 176.953C354.089 274.292 280.149 358.742 182.809 365.201Z" fill="black"/>
<path d="M216.142 161.313H196.27L319.489 32.8931H339.361L216.142 161.313Z" fill="white"/>
</svg>
