<svg width="531" height="531" viewBox="0 0 531 531" fill="none" xmlns="http://www.w3.org/2000/svg">
<path d="M530.664 265.744C530.658 318.202 515.097 369.481 485.948 413.095C456.799 456.709 415.372 490.701 366.905 510.771C318.438 530.841 265.107 536.088 213.658 525.849C162.209 515.61 114.951 490.345 77.8605 453.248C40.7701 416.151 15.513 368.889 5.28292 317.438C-4.94712 265.987 0.309405 212.658 20.3878 164.194C40.4662 115.73 74.4646 74.309 118.084 45.1675C161.703 16.0261 212.984 0.473555 265.443 0.476563C300.276 0.476562 334.768 7.33824 366.949 20.6697C399.13 34.0012 428.37 53.5414 452.999 78.1743C477.628 102.807 497.163 132.05 510.489 164.234C523.815 196.417 530.67 230.911 530.664 265.744Z" fill="white"/>
</svg>
