<svg width="145" height="16" viewBox="0 0 145 16" fill="none" xmlns="http://www.w3.org/2000/svg">
<path d="M66.3317 14.7953C66.1968 14.8706 66.0409 14.9 65.8878 14.879H62.9567C62.6385 14.879 62.5129 14.7408 62.5757 14.4603L64.9541 4.31457C65.0761 3.80674 65.2604 3.31591 65.5026 2.85322C65.7496 2.38146 66.0769 1.95637 66.4699 1.59704C66.8902 1.21457 67.3789 0.914826 67.9103 0.71353C68.5301 0.482727 69.1877 0.370514 69.849 0.382737H76.1299C76.2918 0.382737 76.3923 0.407861 76.4314 0.458108C76.4649 0.504168 76.4564 0.646534 76.402 0.876833L75.8577 3.21751C75.8362 3.35196 75.7783 3.47795 75.6902 3.5818C75.5923 3.64975 75.4741 3.68225 75.3552 3.67392H70.2426C70.0084 3.66503 69.7748 3.70348 69.5559 3.78698C69.402 3.84351 69.2612 3.9305 69.1417 4.04274C69.0223 4.15498 68.9268 4.29016 68.8608 4.44019C68.802 4.57524 68.7558 4.7154 68.7226 4.85891L68.4211 6.14021H73.8646C74.0279 6.14021 74.1284 6.16952 74.166 6.22396C74.2037 6.27839 74.1912 6.42495 74.1367 6.64268L73.6342 8.79493C73.5589 9.11316 73.3914 9.27228 73.1276 9.27228H67.6842L66.4782 14.4477C66.4586 14.5695 66.4066 14.6838 66.3275 14.7785" fill="white"/>
<path d="M88.8466 7.59781C88.5997 8.68005 88.2273 9.72978 87.737 10.7257C87.3058 11.6062 86.7233 12.4041 86.016 13.0831C85.3214 13.7362 84.5027 14.2431 83.6084 14.5738C82.5993 14.9317 81.5343 15.1061 80.4637 15.0888C79.5091 15.1196 78.5588 14.9484 77.675 14.5863C76.976 14.2849 76.3899 13.7705 76.0001 13.1166C75.6024 12.3954 75.3895 11.5869 75.3804 10.7634C75.3529 9.71115 75.4698 8.66012 75.7279 7.63968C75.9709 6.56574 76.3567 5.52922 76.8752 4.55786C77.34 3.67222 77.9468 2.86877 78.6716 2.1795C79.3701 1.52428 80.1892 1.01092 81.0834 0.667901C82.0189 0.310453 83.0131 0.1315 84.0145 0.140307C84.9703 0.108483 85.9212 0.288659 86.7991 0.667901C87.5022 0.987321 88.0941 1.50926 88.499 2.16694C88.9085 2.88531 89.1343 3.69362 89.1565 4.52018C89.1939 5.5561 89.0854 6.59214 88.834 7.59781M84.7054 7.61875C84.8144 7.11061 84.8899 6.59586 84.9315 6.07784C84.9742 5.65738 84.9459 5.23273 84.8478 4.82166C84.765 4.48256 84.5739 4.17971 84.3034 3.95908C83.9744 3.72934 83.5776 3.61722 83.1771 3.64085C82.7801 3.63722 82.39 3.74453 82.0507 3.95071C81.6865 4.16773 81.3668 4.45191 81.1086 4.78816C80.8164 5.16646 80.5729 5.58007 80.3841 6.01921C80.1753 6.4942 80.0114 6.98765 79.8943 7.49313C79.7561 8.0556 79.6637 8.62833 79.6179 9.20571C79.5714 9.64025 79.6098 10.0797 79.731 10.4996C79.8219 10.8288 80.0229 11.117 80.3004 11.3161C80.6319 11.5279 81.0215 11.6304 81.4142 11.6092C81.8396 11.6151 82.2584 11.5036 82.6244 11.2868C82.9896 11.0637 83.3059 10.7688 83.5539 10.42C83.8316 10.0312 84.0595 9.60923 84.2323 9.16384C84.4239 8.67019 84.5806 8.16368 84.7012 7.64806" fill="white"/>
<path d="M115.627 6.9536C115.95 7.09962 116.236 7.3156 116.465 7.58587C116.67 7.83421 116.827 8.11807 116.93 8.42332C117.027 8.73779 117.075 9.06553 117.072 9.39476C117.071 9.73475 117.031 10.0735 116.951 10.4039C116.802 11.0543 116.529 11.6699 116.147 12.217C115.761 12.7612 115.289 13.238 114.748 13.6281C114.196 14.024 113.584 14.3293 112.935 14.5325C112.259 14.7523 111.552 14.8612 110.841 14.8549H105.461C104.895 14.8549 104.552 14.7503 104.439 14.5325C104.317 14.1957 104.317 13.8268 104.439 13.4899L107.19 1.7279C107.258 1.34796 107.427 0.993435 107.68 0.702024C108.012 0.437121 108.434 0.313741 108.857 0.358669H114.233C114.798 0.355819 115.361 0.426193 115.908 0.568031C116.373 0.685112 116.804 0.911965 117.164 1.22962C117.496 1.54265 117.733 1.94334 117.847 2.3853C117.97 2.94584 117.954 3.52813 117.801 4.08114C117.654 4.6572 117.38 5.19263 116.997 5.64717C116.624 6.12318 116.159 6.52029 115.632 6.81542L115.627 6.9536ZM110.184 5.69742H112.345C112.628 5.69401 112.907 5.62219 113.157 5.48806C113.3 5.40067 113.423 5.2831 113.516 5.14354C113.609 5.00397 113.671 4.84577 113.697 4.67992C113.739 4.55933 113.75 4.43049 113.731 4.30436C113.713 4.17823 113.663 4.05856 113.588 3.95552C113.496 3.86737 113.387 3.79975 113.267 3.75715C113.147 3.71456 113.02 3.69796 112.893 3.70847H110.653L110.184 5.69742ZM112.977 10.1317C113.029 9.96828 113.044 9.7953 113.022 9.62519C113 9.45508 112.94 9.29203 112.847 9.14772C112.734 9.01012 112.588 8.90287 112.423 8.83563C112.257 8.76839 112.078 8.74326 111.901 8.76249H109.468L108.836 11.4758H111.264C111.506 11.4805 111.746 11.4378 111.972 11.3502C112.332 11.2001 112.628 10.9291 112.809 10.5839C112.88 10.4397 112.935 10.2881 112.973 10.1317" fill="white"/>
<path d="M127.98 14.8629H121.582C120.919 14.8953 120.257 14.7749 119.647 14.5112C119.225 14.3141 118.873 13.9927 118.638 13.59C118.429 13.2045 118.321 12.7723 118.324 12.3338C118.325 11.8659 118.378 11.3995 118.483 10.9436L120.024 4.30264C120.148 3.79423 120.335 3.30331 120.581 2.84129C121.092 1.85417 121.949 1.09063 122.989 0.697417C123.609 0.466614 124.266 0.354401 124.928 0.366624H131.037C131.204 0.366624 131.305 0.391747 131.338 0.441994C131.376 0.488054 131.368 0.630421 131.313 0.86072L130.76 3.2014C130.74 3.3357 130.68 3.46096 130.589 3.5615C130.494 3.6333 130.376 3.6676 130.258 3.65781H125.334C125.098 3.64858 124.863 3.68703 124.643 3.77086C124.486 3.83513 124.343 3.93056 124.224 4.05141C124.117 4.15785 124.031 4.2845 123.973 4.42407C123.914 4.55913 123.868 4.69929 123.835 4.8428L123.63 5.70956H129.182C129.349 5.70956 129.45 5.73887 129.483 5.79331C129.517 5.84774 129.508 5.99429 129.454 6.21203L128.952 8.36428C128.876 8.68251 128.705 8.84163 128.445 8.84163H122.897L122.532 10.3951C122.474 10.5961 122.457 10.807 122.482 11.0148C122.496 11.1471 122.559 11.2695 122.658 11.3582C122.763 11.438 122.887 11.4873 123.018 11.5005C123.18 11.5242 123.344 11.5354 123.508 11.534H128.767C128.931 11.534 129.031 11.5592 129.069 11.6052C129.106 11.6513 129.098 11.7936 129.044 12.0239L128.491 14.3772C128.416 14.6954 128.248 14.8545 127.984 14.8545" fill="white"/>
<path d="M143.472 3.6623H139.934L137.422 14.4277C137.401 14.5532 137.35 14.6714 137.271 14.7711C137.136 14.8505 136.978 14.8829 136.823 14.8632H133.892C133.578 14.8632 133.473 14.7167 133.519 14.4445L136.031 3.67905H132.585C132.296 3.67905 132.167 3.51994 132.263 3.20171L132.803 0.881968C132.82 0.725145 132.888 0.578125 132.996 0.463242C133.106 0.404664 133.231 0.379907 133.356 0.392059H144.268C144.382 0.376763 144.497 0.401958 144.594 0.463242C144.645 0.513489 144.64 0.651669 144.594 0.881968L144.054 3.20171C144.035 3.33875 143.964 3.46321 143.856 3.54906C143.747 3.6349 143.61 3.67548 143.472 3.6623Z" fill="white"/>
<path d="M94.6745 7.01569L92.9075 14.4271C92.8876 14.5534 92.8341 14.672 92.7526 14.7705C92.6178 14.8505 92.46 14.883 92.3046 14.8626H89.3735C89.0553 14.8626 88.9548 14.7202 89.0008 14.4439L91.9696 2.00354C92.0418 1.51488 92.2625 1.06025 92.6019 0.701306C92.9714 0.452655 93.414 0.336091 93.858 0.370513H94.9341C95.1119 0.36773 95.2896 0.377524 95.4659 0.399824C95.6038 0.416686 95.7374 0.459297 95.8596 0.525441C95.9838 0.594416 96.0911 0.690263 96.1736 0.805988C96.2885 0.960678 96.388 1.12615 96.4709 1.30008L98.3761 5.73439L99.381 8.24674H99.5276L101.307 0.789238C101.328 0.663242 101.381 0.544879 101.462 0.445884C101.595 0.365507 101.752 0.333007 101.906 0.353764H104.837C105.151 0.353764 105.256 0.496131 105.205 0.772489L102.245 13.1919C102.151 13.6222 101.955 14.024 101.676 14.3643C101.5 14.5345 101.29 14.6643 101.059 14.7446C100.828 14.8249 100.583 14.8537 100.34 14.8291H99.268C99.0944 14.832 98.9208 14.8222 98.7487 14.7998C98.6024 14.7851 98.4602 14.7425 98.33 14.6742C98.2039 14.6029 98.0929 14.5076 98.0034 14.3936C97.8853 14.2419 97.7894 14.0741 97.7187 13.8953L95.8344 9.54897L94.7918 6.98219L94.6745 7.01569Z" fill="white"/>
<path d="M57.0114 6.81542L56.735 6.53906L54.9135 8.36052L53.0921 6.53906L52.8115 6.81542L54.633 8.64106L52.8115 10.4583L53.0921 10.7389L54.9135 8.91742L56.735 10.7389L57.0114 10.4583L55.1899 8.64106L57.0114 6.81542Z" fill="black"/>
<path d="M5.12185 0.366699H2.19077C1.83429 0.366699 1.49243 0.50831 1.24036 0.76038C0.98829 1.01245 0.84668 1.35433 0.84668 1.71081V13.5398C0.84668 13.8963 0.98829 14.2382 1.24036 14.4902C1.49243 14.7423 1.83429 14.8839 2.19077 14.8839H5.12185C5.47833 14.8839 5.82024 14.7423 6.07231 14.4902C6.32438 14.2382 6.46599 13.8963 6.46599 13.5398V6.04462H3.77776V7.67765H4.67384V13.2048H2.65555V2.01229H4.67384V4.25247H6.46599V1.71081C6.46599 1.35433 6.32438 1.01245 6.07231 0.76038C5.82024 0.50831 5.47833 0.366699 5.12185 0.366699Z" fill="black"/>
<path d="M13.2794 9.02594C13.6163 8.99743 13.93 8.84263 14.1575 8.59258C14.385 8.34253 14.5096 8.01571 14.5063 7.67764V1.71081C14.5052 1.35394 14.3626 1.01207 14.1099 0.760124C13.8572 0.508175 13.5149 0.366697 13.158 0.366699H8.82422V14.863H10.6205V2.01229H12.7141V7.39291H10.9974L12.9068 14.863H14.7533L13.2794 9.02594Z" fill="black"/>
<path d="M16.7505 14.863H21.6789V13.2174H18.5426V7.69021H20.6321V6.04462H18.5426V2.01229H21.6789V0.366699H16.7505V14.863Z" fill="black"/>
<path d="M25.2458 0.366699L22.9805 14.863H24.7935L25.1327 12.3213H27.1845L27.5236 14.863H29.3367L27.0672 0.366699H25.2458ZM25.3547 10.6799L26.1586 4.6377L26.9667 10.6841L25.3547 10.6799Z" fill="black"/>
<path d="M29.5132 2.01229H31.4561V14.863H33.2524V2.01229H35.1911V0.366699H29.5132V2.01229Z" fill="black"/>
<path d="M45.0387 0.366699H42.1076C41.7507 0.366697 41.4084 0.508175 41.1557 0.760124C40.9029 1.01207 40.7604 1.35394 40.7593 1.71081V5.45003C40.7595 5.99192 40.944 6.51763 41.2827 6.94069C40.944 7.36536 40.7595 7.89237 40.7593 8.43554V13.5398C40.7593 13.8963 40.9009 14.2382 41.153 14.4902C41.405 14.7423 41.7469 14.8839 42.1034 14.8839H45.0345C45.391 14.8839 45.7328 14.7423 45.9849 14.4902C46.237 14.2382 46.3786 13.8963 46.3786 13.5398V8.43554C46.3768 7.89193 46.1908 7.36497 45.851 6.94069C46.1908 6.51802 46.3769 5.99237 46.3786 5.45003V1.71081C46.3786 1.35505 46.2376 1.01381 45.9864 0.761857C45.7352 0.509908 45.3944 0.367807 45.0387 0.366699ZM42.5598 2.01229H44.5739V5.45003C44.5728 5.60811 44.5092 5.75933 44.3971 5.87072C44.2849 5.98211 44.1332 6.04462 43.9751 6.04462H43.1377C42.9796 6.04462 42.8279 5.98211 42.7157 5.87072C42.6035 5.75933 42.54 5.60811 42.5389 5.45003L42.5598 2.01229ZM44.5739 13.2174H42.5598V8.28898C42.5598 8.1309 42.6223 7.97923 42.7337 7.86706C42.8451 7.75489 42.9963 7.69131 43.1544 7.69021H43.9919C44.1503 7.6913 44.302 7.75474 44.414 7.8668C44.5261 7.97885 44.5895 8.13052 44.5906 8.28898L44.5739 13.2174Z" fill="black"/>
</svg>
