<svg width="145" height="16" viewBox="0 0 145 16" fill="none" xmlns="http://www.w3.org/2000/svg">
<path d="M66.0871 14.7953C65.9521 14.8706 65.7963 14.9 65.6432 14.879H62.7121C62.3939 14.879 62.2683 14.7408 62.3311 14.4603L64.7094 4.31457C64.8315 3.80674 65.0157 3.31591 65.258 2.85322C65.505 2.38146 65.8323 1.95637 66.2252 1.59704C66.6455 1.21457 67.1342 0.914826 67.6657 0.71353C68.2855 0.482727 68.9431 0.370514 69.6044 0.382737H75.8853C76.0472 0.382737 76.1476 0.407861 76.1867 0.458108C76.2202 0.504168 76.2118 0.646534 76.1574 0.876833L75.6131 3.21751C75.5916 3.35196 75.5336 3.47795 75.4456 3.5818C75.3477 3.64975 75.2295 3.68225 75.1106 3.67392H69.998C69.7638 3.66503 69.5302 3.70348 69.3112 3.78698C69.1574 3.84351 69.0165 3.9305 68.8971 4.04274C68.7777 4.15498 68.6822 4.29016 68.6162 4.44019C68.5574 4.57524 68.5111 4.7154 68.478 4.85891L68.1765 6.14021H73.6199C73.7832 6.14021 73.8837 6.16952 73.9214 6.22396C73.9591 6.27839 73.9466 6.42495 73.8921 6.64268L73.3896 8.79493C73.3142 9.11316 73.1468 9.27228 72.883 9.27228H67.4395L66.2336 14.4477C66.214 14.5695 66.1619 14.6838 66.0829 14.7785" fill="#E30C26"/>
<path d="M88.602 7.59781C88.3551 8.68005 87.9827 9.72978 87.4924 10.7257C87.0611 11.6062 86.4786 12.4041 85.7714 13.0831C85.0768 13.7362 84.258 14.2431 83.3637 14.5738C82.3546 14.9317 81.2896 15.1061 80.2191 15.0888C79.2645 15.1196 78.3142 14.9484 77.4304 14.5863C76.7313 14.2849 76.1452 13.7705 75.7555 13.1166C75.3578 12.3954 75.1449 11.5869 75.1358 10.7634C75.1083 9.71115 75.2252 8.66012 75.4833 7.63968C75.7262 6.56574 76.1121 5.52922 76.6306 4.55786C77.0953 3.67222 77.7022 2.86877 78.4269 2.1795C79.1255 1.52428 79.9446 1.01092 80.8388 0.667901C81.7743 0.310453 82.7685 0.1315 83.7699 0.140307C84.7256 0.108483 85.6766 0.288659 86.5544 0.667901C87.2576 0.987321 87.8495 1.50926 88.2544 2.16694C88.6638 2.88531 88.8897 3.69362 88.9118 4.52018C88.9493 5.5561 88.8408 6.59214 88.5894 7.59781M84.4608 7.61875C84.5698 7.11061 84.6453 6.59586 84.6869 6.07784C84.7296 5.65738 84.7013 5.23273 84.6031 4.82166C84.5204 4.48256 84.3293 4.17971 84.0588 3.95908C83.7298 3.72934 83.333 3.61722 82.9324 3.64085C82.5354 3.63722 82.1454 3.74453 81.8061 3.95071C81.4419 4.16773 81.1222 4.45191 80.864 4.78816C80.5717 5.16646 80.3283 5.58007 80.1395 6.01921C79.9307 6.4942 79.7667 6.98765 79.6496 7.49313C79.5115 8.0556 79.419 8.62833 79.3733 9.20571C79.3267 9.64025 79.3651 10.0797 79.4863 10.4996C79.5773 10.8288 79.7783 11.117 80.0558 11.3161C80.3873 11.5279 80.7768 11.6304 81.1696 11.6092C81.595 11.6151 82.0137 11.5036 82.3797 11.2868C82.745 11.0637 83.0612 10.7688 83.3093 10.42C83.5869 10.0312 83.8148 9.60923 83.9876 9.16384C84.1793 8.67019 84.336 8.16368 84.4566 7.64806" fill="#E30C26"/>
<path d="M115.383 6.9536C115.705 7.09962 115.991 7.3156 116.22 7.58587C116.425 7.83421 116.583 8.11807 116.685 8.42332C116.783 8.73779 116.831 9.06553 116.827 9.39476C116.827 9.73475 116.786 10.0735 116.706 10.4039C116.557 11.0543 116.284 11.6699 115.902 12.217C115.517 12.7612 115.044 13.238 114.503 13.6281C113.951 14.024 113.339 14.3293 112.69 14.5325C112.014 14.7523 111.307 14.8612 110.597 14.8549H105.216C104.651 14.8549 104.307 14.7503 104.194 14.5325C104.073 14.1957 104.073 13.8268 104.194 13.4899L106.945 1.7279C107.013 1.34796 107.182 0.993435 107.435 0.702024C107.767 0.437121 108.19 0.313741 108.612 0.358669H113.988C114.553 0.355819 115.116 0.426193 115.663 0.568031C116.129 0.685112 116.56 0.911965 116.919 1.22962C117.252 1.54265 117.488 1.94334 117.602 2.3853C117.726 2.94584 117.71 3.52813 117.556 4.08114C117.41 4.6572 117.135 5.19263 116.752 5.64717C116.379 6.12318 115.915 6.52029 115.387 6.81542L115.383 6.9536ZM109.939 5.69742H112.1C112.384 5.69401 112.662 5.62219 112.912 5.48806C113.056 5.40067 113.178 5.2831 113.271 5.14354C113.365 5.00397 113.426 4.84577 113.452 4.67992C113.494 4.55933 113.506 4.43049 113.487 4.30436C113.468 4.17823 113.419 4.05856 113.344 3.95552C113.252 3.86737 113.142 3.79975 113.023 3.75715C112.903 3.71456 112.775 3.69796 112.648 3.70847H110.408L109.939 5.69742ZM112.732 10.1317C112.784 9.96828 112.8 9.7953 112.777 9.62519C112.755 9.45508 112.695 9.29203 112.602 9.14772C112.489 9.01012 112.343 8.90287 112.178 8.83563C112.013 8.76839 111.833 8.74326 111.656 8.76249H109.223L108.591 11.4758H111.02C111.261 11.4805 111.502 11.4378 111.727 11.3502C112.087 11.2001 112.383 10.9291 112.565 10.5839C112.636 10.4397 112.691 10.2881 112.728 10.1317" fill="#E30C26"/>
<path d="M127.735 14.8629H121.337C120.674 14.8953 120.012 14.7749 119.403 14.5112C118.98 14.3141 118.628 13.9927 118.394 13.59C118.185 13.2045 118.077 12.7723 118.08 12.3338C118.08 11.8659 118.134 11.3995 118.239 10.9436L119.78 4.30264C119.904 3.79423 120.091 3.30331 120.337 2.84129C120.847 1.85417 121.705 1.09063 122.744 0.697417C123.364 0.466614 124.022 0.354401 124.683 0.366624H130.792C130.96 0.366624 131.06 0.391747 131.094 0.441994C131.131 0.488054 131.123 0.630421 131.069 0.86072L130.516 3.2014C130.495 3.3357 130.436 3.46096 130.344 3.5615C130.25 3.6333 130.132 3.6676 130.013 3.65781H125.089C124.854 3.64858 124.619 3.68703 124.398 3.77086C124.241 3.83513 124.099 3.93056 123.98 4.05141C123.872 4.15785 123.787 4.2845 123.728 4.42407C123.67 4.55913 123.623 4.69929 123.59 4.8428L123.385 5.70956H128.937C129.105 5.70956 129.205 5.73887 129.239 5.79331C129.272 5.84774 129.264 5.99429 129.209 6.21203L128.707 8.36428C128.632 8.68251 128.46 8.84163 128.2 8.84163H122.652L122.288 10.3951C122.229 10.5961 122.212 10.807 122.238 11.0148C122.252 11.1471 122.314 11.2695 122.414 11.3582C122.518 11.438 122.643 11.4873 122.774 11.5005C122.936 11.5242 123.1 11.5354 123.263 11.534H128.523C128.686 11.534 128.786 11.5592 128.824 11.6052C128.862 11.6513 128.854 11.7936 128.799 12.0239L128.246 14.3772C128.171 14.6954 128.003 14.8545 127.74 14.8545" fill="#E30C26"/>
<path d="M143.228 3.6623H139.689L137.177 14.4277C137.157 14.5532 137.105 14.6714 137.026 14.7711C136.891 14.8505 136.734 14.8829 136.578 14.8632H133.647C133.333 14.8632 133.228 14.7167 133.274 14.4445L135.787 3.67905H132.341C132.052 3.67905 131.922 3.51994 132.018 3.20171L132.558 0.881968C132.575 0.725145 132.643 0.578125 132.751 0.463242C132.861 0.404664 132.987 0.379907 133.111 0.392059H144.023C144.137 0.376763 144.253 0.401958 144.35 0.463242C144.4 0.513489 144.396 0.651669 144.35 0.881968L143.81 3.20171C143.791 3.33875 143.72 3.46321 143.611 3.54906C143.503 3.6349 143.365 3.67548 143.228 3.6623Z" fill="#E30C26"/>
<path d="M94.4299 7.01569L92.6629 14.4271C92.643 14.5534 92.5895 14.672 92.508 14.7705C92.3732 14.8505 92.2154 14.883 92.06 14.8626H89.1289C88.8106 14.8626 88.7101 14.7202 88.7562 14.4439L91.7249 2.00354C91.7971 1.51488 92.0179 1.06025 92.3572 0.701306C92.7267 0.452655 93.1694 0.336091 93.6134 0.370513H94.6895C94.8672 0.36773 95.0449 0.377524 95.2213 0.399824C95.3592 0.416686 95.4927 0.459297 95.6149 0.525441C95.7392 0.594416 95.8465 0.690263 95.929 0.805988C96.0438 0.960678 96.1434 1.12615 96.2262 1.30008L98.1315 5.73439L99.1364 8.24674H99.283L101.063 0.789238C101.083 0.663242 101.137 0.544879 101.217 0.445884C101.351 0.365507 101.507 0.333007 101.661 0.353764H104.592C104.906 0.353764 105.011 0.496131 104.961 0.772489L102 13.1919C101.906 13.6222 101.711 14.024 101.431 14.3643C101.256 14.5345 101.045 14.6643 100.815 14.7446C100.584 14.8249 100.338 14.8537 100.095 14.8291H99.0234C98.8498 14.832 98.6762 14.8222 98.5041 14.7998C98.3578 14.7851 98.2156 14.7425 98.0854 14.6742C97.9592 14.6029 97.8483 14.5076 97.7588 14.3936C97.6407 14.2419 97.5448 14.0741 97.474 13.8953L95.5898 9.54897L94.5472 6.98219L94.4299 7.01569Z" fill="#E30C26"/>
<path d="M56.7667 6.81542L56.4903 6.53906L54.6689 8.36052L52.8475 6.53906L52.5669 6.81542L54.3883 8.64106L52.5669 10.4583L52.8475 10.7389L54.6689 8.91742L56.4903 10.7389L56.7667 10.4583L54.9453 8.64106L56.7667 6.81542Z" fill="black"/>
<path d="M4.87722 0.366699H1.94614C1.58966 0.366699 1.2478 0.50831 0.99573 0.76038C0.743661 1.01245 0.602051 1.35433 0.602051 1.71081V13.5398C0.602051 13.8963 0.743661 14.2382 0.99573 14.4902C1.2478 14.7423 1.58966 14.8839 1.94614 14.8839H4.87722C5.2337 14.8839 5.57562 14.7423 5.82769 14.4902C6.07975 14.2382 6.22136 13.8963 6.22136 13.5398V6.04462H3.53313V7.67765H4.42921V13.2048H2.41092V2.01229H4.42921V4.25247H6.22136V1.71081C6.22136 1.35433 6.07975 1.01245 5.82769 0.76038C5.57562 0.50831 5.2337 0.366699 4.87722 0.366699Z" fill="black"/>
<path d="M13.0348 9.02594C13.3717 8.99743 13.6853 8.84263 13.9129 8.59258C14.1404 8.34253 14.265 8.01571 14.2617 7.67764V1.71081C14.2606 1.35394 14.118 1.01207 13.8653 0.760124C13.6125 0.508175 13.2703 0.366697 12.9134 0.366699H8.57959V14.863H10.3759V2.01229H12.4695V7.39291H10.7528L12.6622 14.863H14.5087L13.0348 9.02594Z" fill="black"/>
<path d="M16.5059 14.863H21.4343V13.2174H18.298V7.69021H20.3875V6.04462H18.298V2.01229H21.4343V0.366699H16.5059V14.863Z" fill="black"/>
<path d="M25.0012 0.366699L22.7358 14.863H24.5489L24.8881 12.3213H26.9399L27.279 14.863H29.0921L26.8226 0.366699H25.0012ZM25.11 10.6799L25.914 4.6377L26.7221 10.6841L25.11 10.6799Z" fill="black"/>
<path d="M29.2686 2.01229H31.2114V14.863H33.0078V2.01229H34.9465V0.366699H29.2686V2.01229Z" fill="black"/>
<path d="M44.7941 0.366699H41.863C41.5061 0.366697 41.1638 0.508175 40.911 0.760124C40.6583 1.01207 40.5158 1.35394 40.5146 1.71081V5.45003C40.5148 5.99192 40.6994 6.51763 41.0381 6.94069C40.6994 7.36536 40.5149 7.89237 40.5146 8.43554V13.5398C40.5146 13.8963 40.6563 14.2382 40.9083 14.4902C41.1604 14.7423 41.5023 14.8839 41.8588 14.8839H44.7899C45.1463 14.8839 45.4882 14.7423 45.7403 14.4902C45.9924 14.2382 46.134 13.8963 46.134 13.5398V8.43554C46.1322 7.89193 45.9462 7.36497 45.6064 6.94069C45.9462 6.51802 46.1323 5.99237 46.134 5.45003V1.71081C46.134 1.35505 45.9929 1.01381 45.7418 0.761857C45.4906 0.509908 45.1498 0.367807 44.7941 0.366699ZM42.3152 2.01229H44.3293V5.45003C44.3282 5.60811 44.2646 5.75933 44.1524 5.87072C44.0403 5.98211 43.8886 6.04462 43.7305 6.04462H42.893C42.7349 6.04462 42.5833 5.98211 42.4711 5.87072C42.3589 5.75933 42.2953 5.60811 42.2942 5.45003L42.3152 2.01229ZM44.3293 13.2174H42.3152V8.28898C42.3152 8.1309 42.3777 7.97923 42.4891 7.86706C42.6005 7.75489 42.7517 7.69131 42.9098 7.69021H43.7472C43.9057 7.6913 44.0573 7.75474 44.1694 7.8668C44.2815 7.97885 44.3449 8.13052 44.346 8.28898L44.3293 13.2174Z" fill="black"/>
</svg>
