<svg width="144" height="16" viewBox="0 0 144 16" fill="none" xmlns="http://www.w3.org/2000/svg">
<path d="M65.7096 14.7953C65.5747 14.8706 65.4189 14.9 65.2658 14.879H62.3347C62.0164 14.879 61.8909 14.7408 61.9537 14.4603L64.332 4.31457C64.454 3.80674 64.6383 3.31591 64.8806 2.85322C65.1275 2.38146 65.4548 1.95637 65.8478 1.59704C66.2681 1.21457 66.7568 0.914826 67.2882 0.71353C67.908 0.482727 68.5657 0.370514 69.2269 0.382737H75.5078C75.6697 0.382737 75.7702 0.407861 75.8093 0.458108C75.8428 0.504168 75.8344 0.646534 75.7799 0.876833L75.2356 3.21751C75.2141 3.35196 75.1562 3.47795 75.0681 3.5818C74.9702 3.64975 74.852 3.68225 74.7331 3.67392H69.6205C69.3863 3.66503 69.1528 3.70348 68.9338 3.78698C68.78 3.84351 68.6391 3.9305 68.5197 4.04274C68.4002 4.15498 68.3047 4.29016 68.2387 4.44019C68.18 4.57524 68.1337 4.7154 68.1005 4.85891L67.7991 6.14021H73.2425C73.4058 6.14021 73.5063 6.16952 73.544 6.22396C73.5817 6.27839 73.5691 6.42495 73.5147 6.64268L73.0122 8.79493C72.9368 9.11316 72.7693 9.27228 72.5055 9.27228H67.0621L65.8562 14.4477C65.8366 14.5695 65.7845 14.6838 65.7054 14.7785" fill="#E30C26"/>
<path d="M88.2246 7.59781C87.9776 8.68005 87.6052 9.72978 87.1149 10.7257C86.6837 11.6062 86.1012 12.4041 85.394 13.0831C84.6993 13.7362 83.8806 14.2431 82.9863 14.5738C81.9772 14.9317 80.9122 15.1061 79.8417 15.0888C78.8871 15.1196 77.9367 14.9484 77.0529 14.5863C76.3539 14.2849 75.7678 13.7705 75.378 13.1166C74.9803 12.3954 74.7674 11.5869 74.7583 10.7634C74.7308 9.71115 74.8477 8.66012 75.1059 7.63968C75.3488 6.56574 75.7347 5.52922 76.2532 4.55786C76.7179 3.67222 77.3248 2.86877 78.0495 2.1795C78.748 1.52428 79.5672 1.01092 80.4614 0.667901C81.3968 0.310453 82.391 0.1315 83.3924 0.140307C84.3482 0.108483 85.2991 0.288659 86.177 0.667901C86.8802 0.987321 87.4721 1.50926 87.877 2.16694C88.2864 2.88531 88.5122 3.69362 88.5344 4.52018C88.5719 5.5561 88.4633 6.59214 88.212 7.59781M84.0834 7.61875C84.1923 7.11061 84.2678 6.59586 84.3094 6.07784C84.3521 5.65738 84.3239 5.23273 84.2257 4.82166C84.143 4.48256 83.9518 4.17971 83.6813 3.95908C83.3524 3.72934 82.9556 3.61722 82.555 3.64085C82.158 3.63722 81.7679 3.74453 81.4286 3.95071C81.0644 4.16773 80.7447 4.45191 80.4865 4.78816C80.1943 5.16646 79.9509 5.58007 79.7621 6.01921C79.5533 6.4942 79.3893 6.98765 79.2722 7.49313C79.134 8.0556 79.0416 8.62833 78.9958 9.20571C78.9493 9.64025 78.9877 10.0797 79.1089 10.4996C79.1999 10.8288 79.4008 11.117 79.6784 11.3161C80.0098 11.5279 80.3994 11.6304 80.7922 11.6092C81.2175 11.6151 81.6363 11.5036 82.0023 11.2868C82.3676 11.0637 82.6838 10.7688 82.9319 10.42C83.2095 10.0312 83.4374 9.60923 83.6102 9.16384C83.8018 8.67019 83.9585 8.16368 84.0792 7.64806" fill="#E30C26"/>
<path d="M115.005 6.9536C115.328 7.09962 115.614 7.3156 115.843 7.58587C116.048 7.83421 116.205 8.11807 116.308 8.42332C116.405 8.73779 116.453 9.06553 116.45 9.39476C116.449 9.73475 116.409 10.0735 116.328 10.4039C116.18 11.0543 115.907 11.6699 115.525 12.217C115.139 12.7612 114.667 13.238 114.126 13.6281C113.574 14.024 112.961 14.3293 112.313 14.5325C111.637 14.7523 110.93 14.8612 110.219 14.8549H104.839C104.273 14.8549 103.93 14.7503 103.817 14.5325C103.695 14.1957 103.695 13.8268 103.817 13.4899L106.568 1.7279C106.636 1.34796 106.805 0.993435 107.058 0.702024C107.39 0.437121 107.812 0.313741 108.234 0.358669H113.611C114.176 0.355819 114.739 0.426193 115.286 0.568031C115.751 0.685112 116.182 0.911965 116.542 1.22962C116.874 1.54265 117.111 1.94334 117.225 2.3853C117.348 2.94584 117.332 3.52813 117.178 4.08114C117.032 4.6572 116.757 5.19263 116.375 5.64717C116.001 6.12318 115.537 6.52029 115.01 6.81542L115.005 6.9536ZM109.562 5.69742H111.723C112.006 5.69401 112.285 5.62219 112.535 5.48806C112.678 5.40067 112.801 5.2831 112.894 5.14354C112.987 5.00397 113.049 4.84577 113.075 4.67992C113.117 4.55933 113.128 4.43049 113.109 4.30436C113.09 4.17823 113.041 4.05856 112.966 3.95552C112.874 3.86737 112.765 3.79975 112.645 3.75715C112.525 3.71456 112.398 3.69796 112.271 3.70847H110.031L109.562 5.69742ZM112.355 10.1317C112.407 9.96828 112.422 9.7953 112.4 9.62519C112.378 9.45508 112.318 9.29203 112.225 9.14772C112.112 9.01012 111.966 8.90287 111.8 8.83563C111.635 8.76839 111.456 8.74326 111.279 8.76249H108.846L108.214 11.4758H110.642C110.884 11.4805 111.124 11.4378 111.35 11.3502C111.71 11.2001 112.006 10.9291 112.187 10.5839C112.258 10.4397 112.313 10.2881 112.351 10.1317" fill="#E30C26"/>
<path d="M127.358 14.8629H120.96C120.297 14.8953 119.635 14.7749 119.025 14.5112C118.603 14.3141 118.251 13.9927 118.016 13.59C117.807 13.2045 117.699 12.7723 117.702 12.3338C117.703 11.8659 117.756 11.3995 117.861 10.9436L119.402 4.30264C119.526 3.79423 119.713 3.30331 119.959 2.84129C120.47 1.85417 121.327 1.09063 122.367 0.697417C122.987 0.466614 123.644 0.354401 124.306 0.366624H130.415C130.582 0.366624 130.683 0.391747 130.716 0.441994C130.754 0.488054 130.746 0.630421 130.691 0.86072L130.138 3.2014C130.118 3.3357 130.058 3.46096 129.967 3.5615C129.872 3.6333 129.754 3.6676 129.636 3.65781H124.712C124.476 3.64858 124.241 3.68703 124.021 3.77086C123.864 3.83513 123.721 3.93056 123.602 4.05141C123.495 4.15785 123.409 4.2845 123.351 4.42407C123.292 4.55913 123.246 4.69929 123.213 4.8428L123.007 5.70956H128.56C128.727 5.70956 128.828 5.73887 128.861 5.79331C128.895 5.84774 128.886 5.99429 128.832 6.21203L128.329 8.36428C128.254 8.68251 128.082 8.84163 127.823 8.84163H122.275L121.91 10.3951C121.852 10.5961 121.835 10.807 121.86 11.0148C121.874 11.1471 121.937 11.2695 122.036 11.3582C122.141 11.438 122.265 11.4873 122.396 11.5005C122.558 11.5242 122.722 11.5354 122.886 11.534H128.145C128.309 11.534 128.409 11.5592 128.447 11.6052C128.484 11.6513 128.476 11.7936 128.422 12.0239L127.869 14.3772C127.794 14.6954 127.626 14.8545 127.362 14.8545" fill="#E30C26"/>
<path d="M142.85 3.6623H139.312L136.8 14.4277C136.779 14.5532 136.727 14.6714 136.649 14.7711C136.514 14.8505 136.356 14.8829 136.201 14.8632H133.27C132.956 14.8632 132.851 14.7167 132.897 14.4445L135.409 3.67905H131.963C131.674 3.67905 131.545 3.51994 131.641 3.20171L132.181 0.881968C132.198 0.725145 132.266 0.578125 132.374 0.463242C132.484 0.404664 132.609 0.379907 132.734 0.392059H143.646C143.76 0.376763 143.875 0.401958 143.972 0.463242C144.023 0.513489 144.018 0.651669 143.972 0.881968L143.432 3.20171C143.413 3.33875 143.342 3.46321 143.234 3.54906C143.125 3.6349 142.988 3.67548 142.85 3.6623Z" fill="#E30C26"/>
<path d="M94.0525 7.01569L92.2854 14.4271C92.2656 14.5534 92.2121 14.672 92.1305 14.7705C91.9957 14.8505 91.838 14.883 91.6825 14.8626H88.7514C88.4332 14.8626 88.3327 14.7202 88.3788 14.4439L91.3475 2.00354C91.4197 1.51488 91.6404 1.06025 91.9798 0.701306C92.3493 0.452655 92.7919 0.336091 93.236 0.370513H94.3121C94.4898 0.36773 94.6675 0.377524 94.8439 0.399824C94.9818 0.416686 95.1153 0.459297 95.2375 0.525441C95.3617 0.594416 95.469 0.690263 95.5515 0.805988C95.6664 0.960678 95.7659 1.12615 95.8488 1.30008L97.754 5.73439L98.7589 8.24674H98.9055L100.685 0.789238C100.706 0.663242 100.759 0.544879 100.84 0.445884C100.973 0.365507 101.13 0.333007 101.284 0.353764H104.215C104.529 0.353764 104.634 0.496131 104.583 0.772489L101.623 13.1919C101.529 13.6222 101.333 14.024 101.054 14.3643C100.878 14.5345 100.668 14.6643 100.437 14.7446C100.206 14.8249 99.9609 14.8537 99.7178 14.8291H98.6459C98.4724 14.832 98.2988 14.8222 98.1266 14.7998C97.9803 14.7851 97.8382 14.7425 97.7079 14.6742C97.5818 14.6029 97.4709 14.5076 97.3814 14.3936C97.2632 14.2419 97.1673 14.0741 97.0966 13.8953L95.2123 9.54897L94.1697 6.98219L94.0525 7.01569Z" fill="#E30C26"/>
<path d="M56.3893 6.81542L56.1129 6.53906L54.2915 8.36052L52.47 6.53906L52.1895 6.81542L54.0109 8.64106L52.1895 10.4583L52.47 10.7389L54.2915 8.91742L56.1129 10.7389L56.3893 10.4583L54.5678 8.64106L56.3893 6.81542Z" fill="white"/>
<path d="M4.49978 0.366699H1.5687C1.21222 0.366699 0.870358 0.50831 0.618289 0.76038C0.36622 1.01245 0.224609 1.35433 0.224609 1.71081V13.5398C0.224609 13.8963 0.36622 14.2382 0.618289 14.4902C0.870358 14.7423 1.21222 14.8839 1.5687 14.8839H4.49978C4.85626 14.8839 5.19817 14.7423 5.45024 14.4902C5.70231 14.2382 5.84392 13.8963 5.84392 13.5398V6.04462H3.15569V7.67765H4.05177V13.2048H2.03348V2.01229H4.05177V4.25247H5.84392V1.71081C5.84392 1.35433 5.70231 1.01245 5.45024 0.76038C5.19817 0.50831 4.85626 0.366699 4.49978 0.366699Z" fill="white"/>
<path d="M12.6573 9.02594C12.9942 8.99743 13.3079 8.84263 13.5354 8.59258C13.763 8.34253 13.8875 8.01571 13.8842 7.67764V1.71081C13.8831 1.35394 13.7406 1.01207 13.4878 0.760124C13.2351 0.508175 12.8928 0.366697 12.5359 0.366699H8.20215V14.863H9.99845V2.01229H12.0921V7.39291H10.3753L12.2847 14.863H14.1313L12.6573 9.02594Z" fill="white"/>
<path d="M16.1284 14.863H21.0568V13.2174H17.9206V7.69021H20.01V6.04462H17.9206V2.01229H21.0568V0.366699H16.1284V14.863Z" fill="white"/>
<path d="M24.6237 0.366699L22.3584 14.863H24.1715L24.5107 12.3213H26.5624L26.9016 14.863H28.7147L26.4452 0.366699H24.6237ZM24.7326 10.6799L25.5365 4.6377L26.3447 10.6841L24.7326 10.6799Z" fill="white"/>
<path d="M28.8911 2.01229H30.834V14.863H32.6304V2.01229H34.5691V0.366699H28.8911V2.01229Z" fill="white"/>
<path d="M44.4166 0.366699H41.4855C41.1287 0.366697 40.7863 0.508175 40.5336 0.760124C40.2809 1.01207 40.1383 1.35394 40.1372 1.71081V5.45003C40.1374 5.99192 40.322 6.51763 40.6606 6.94069C40.322 7.36536 40.1374 7.89237 40.1372 8.43554V13.5398C40.1372 13.8963 40.2788 14.2382 40.5309 14.4902C40.783 14.7423 41.1249 14.8839 41.4814 14.8839H44.4124C44.7689 14.8839 45.1108 14.7423 45.3628 14.4902C45.6149 14.2382 45.7565 13.8963 45.7565 13.5398V8.43554C45.7548 7.89193 45.5688 7.36497 45.2289 6.94069C45.5688 6.51802 45.7548 5.99237 45.7565 5.45003V1.71081C45.7565 1.35505 45.6155 1.01381 45.3643 0.761857C45.1132 0.509908 44.7724 0.367807 44.4166 0.366699ZM41.9377 2.01229H43.9518V5.45003C43.9507 5.60811 43.8872 5.75933 43.775 5.87072C43.6628 5.98211 43.5111 6.04462 43.353 6.04462H42.5156C42.3575 6.04462 42.2058 5.98211 42.0936 5.87072C41.9815 5.75933 41.9179 5.60811 41.9168 5.45003L41.9377 2.01229ZM43.9518 13.2174H41.9377V8.28898C41.9377 8.1309 42.0002 7.97923 42.1116 7.86706C42.223 7.75489 42.3743 7.69131 42.5324 7.69021H43.3698C43.5283 7.6913 43.6799 7.75474 43.792 7.8668C43.904 7.97885 43.9675 8.13052 43.9686 8.28898L43.9518 13.2174Z" fill="white"/>
</svg>
